<svg xmlns="http://www.w3.org/2000/svg" viewBox="0 0 500 500"><g id="freepik--background-complete--inject-39"><rect x="392.02" y="56.61" width="69.07" height="72" style="fill:#e0e0e0"></rect><rect x="387.34" y="56.61" width="69.07" height="72" style="fill:#fafafa"></rect><path d="M456.43,128.63H387.32v-72h69.11Zm-69.07,0h69v-72h-69Z" style="fill:#e0e0e0"></path><rect x="396.63" y="66.28" width="50.5" height="52.64" style="fill:#fff"></rect><path d="M396.63,119.28a8,8,0,0,1-1.25,1.45c-.81.85-1.94,2-3.21,3.25s-2.44,2.37-3.3,3.16a7.32,7.32,0,0,1-1.46,1.21,8.83,8.83,0,0,1,1.24-1.44c.81-.85,1.94-2,3.22-3.26s2.44-2.37,3.3-3.16A8.06,8.06,0,0,1,396.63,119.28Z" style="fill:#e0e0e0"></path><path d="M447.13,119.15a8.17,8.17,0,0,1,1.45,1.24c.85.81,2,1.94,3.25,3.21s2.37,2.44,3.16,3.3a9.11,9.11,0,0,1,1.22,1.46,7.21,7.21,0,0,1-1.45-1.24c-.85-.8-2-1.94-3.26-3.21s-2.37-2.45-3.16-3.31A7.84,7.84,0,0,1,447.13,119.15Z" style="fill:#e0e0e0"></path><path d="M447,66.43A8,8,0,0,1,448.24,65c.8-.85,1.94-2,3.21-3.26s2.43-2.36,3.3-3.16a7.32,7.32,0,0,1,1.46-1.21A8.83,8.83,0,0,1,455,58.79c-.81.85-2,2-3.22,3.26s-2.45,2.37-3.31,3.17A8.4,8.4,0,0,1,447,66.43Z" style="fill:#e0e0e0"></path><path d="M396.49,66.55A7.66,7.66,0,0,1,395,65.31c-.85-.81-2-1.94-3.25-3.21s-2.37-2.44-3.16-3.3a8.62,8.62,0,0,1-1.22-1.46,7.83,7.83,0,0,1,1.44,1.24c.86.81,2,1.94,3.27,3.22s2.37,2.44,3.16,3.3A7.84,7.84,0,0,1,396.49,66.55Z" style="fill:#e0e0e0"></path><path d="M447,118.93s0-.09,0-.26,0-.42,0-.73c0-.66,0-1.61,0-2.84,0-2.5,0-6.13-.06-10.73,0-9.22-.05-22.36-.09-38.09l.19.2-50.36,0h0l.22-.23c0,19.33,0,37.4,0,52.65l-.19-.19,36.46.09,10.25,0,2.71,0h.7a.93.93,0,0,1,.24,0h-.9l-2.68,0-10.19,0-36.59.1h-.19v-.19c0-15.25,0-33.32,0-52.65v-.22h.23l50.36,0h.2v.19c0,15.78-.07,29-.09,38.21,0,4.59,0,8.2-.06,10.69,0,1.21,0,2.15,0,2.8,0,.3,0,.54,0,.71A2.17,2.17,0,0,1,447,118.93Z" style="fill:#e0e0e0"></path><rect x="413.45" y="84.18" width="16.85" height="16.85" style="fill:#ebebeb"></rect><rect x="392.02" y="156.29" width="69.07" height="72" style="fill:#e0e0e0"></rect><rect x="387.34" y="156.29" width="69.07" height="72" style="fill:#fafafa"></rect><path d="M456.43,228.31H387.32v-72h69.11Zm-69.07,0h69v-72h-69Z" style="fill:#e0e0e0"></path><rect x="396.63" y="165.97" width="50.5" height="52.64" style="fill:#fff"></rect><path d="M396.63,219a8,8,0,0,1-1.25,1.45c-.81.85-1.94,2-3.21,3.25s-2.44,2.37-3.3,3.16a8.18,8.18,0,0,1-1.46,1.22,8.61,8.61,0,0,1,1.24-1.45c.81-.85,1.94-2,3.22-3.26s2.44-2.37,3.3-3.16A8.06,8.06,0,0,1,396.63,219Z" style="fill:#e0e0e0"></path><path d="M447.13,218.83a8,8,0,0,1,1.45,1.25c.85.8,2,1.94,3.25,3.21s2.37,2.44,3.16,3.3a8.18,8.18,0,0,1,1.22,1.46,8.17,8.17,0,0,1-1.45-1.24c-.85-.81-2-1.95-3.26-3.22s-2.37-2.44-3.16-3.31A7.84,7.84,0,0,1,447.13,218.83Z" style="fill:#e0e0e0"></path><path d="M447,166.11a8,8,0,0,1,1.25-1.45c.8-.85,1.94-2,3.21-3.26s2.43-2.36,3.3-3.15a8.18,8.18,0,0,1,1.46-1.22,8.36,8.36,0,0,1-1.24,1.44c-.81.86-2,2-3.22,3.26s-2.45,2.38-3.31,3.17A7.84,7.84,0,0,1,447,166.11Z" style="fill:#e0e0e0"></path><path d="M396.49,166.24A8,8,0,0,1,395,165c-.85-.81-2-1.94-3.25-3.21s-2.37-2.44-3.16-3.3a8.18,8.18,0,0,1-1.22-1.46,7.83,7.83,0,0,1,1.44,1.24c.86.81,2,1.94,3.27,3.22s2.37,2.44,3.16,3.3A8.06,8.06,0,0,1,396.49,166.24Z" style="fill:#e0e0e0"></path><path d="M447,218.61s0-.09,0-.26,0-.42,0-.73c0-.66,0-1.61,0-2.84,0-2.5,0-6.12-.06-10.73,0-9.22-.05-22.36-.09-38.08l.19.19-50.36,0h0l.22-.22c0,19.32,0,37.4,0,52.64l-.19-.19,36.46.1,10.25,0,2.71,0h0l-2.68,0-10.19,0-36.59.1h-.19v-.19c0-15.24,0-33.32,0-52.64v-.23h.23l50.36,0h.2v.2c0,15.78-.07,28.95-.09,38.2,0,4.59,0,8.21-.06,10.69,0,1.22,0,2.15,0,2.8,0,.31,0,.54,0,.72A1.85,1.85,0,0,1,447,218.61Z" style="fill:#e0e0e0"></path><rect x="413.45" y="183.86" width="16.85" height="16.85" style="fill:#ebebeb"></rect><rect x="46.16" y="231.16" width="54.48" height="56.8" style="fill:#e0e0e0"></rect><rect x="42.47" y="231.16" width="54.48" height="56.8" style="fill:#fafafa"></rect><path d="M97,288H42.45V231.14H97Zm-54.49,0H96.93V231.17H42.48Z" style="fill:#e0e0e0"></path><rect x="49.79" y="238.79" width="39.84" height="41.53" style="fill:#fff"></rect><path d="M49.79,280.59a6.5,6.5,0,0,1-1,1.15c-.64.67-1.53,1.58-2.53,2.56s-1.93,1.87-2.61,2.5a5.81,5.81,0,0,1-1.15.95,6.78,6.78,0,0,1,1-1.13C44.14,285.94,45,285,46,284s1.93-1.87,2.6-2.49A6.56,6.56,0,0,1,49.79,280.59Z" style="fill:#e0e0e0"></path><path d="M89.63,280.49a7,7,0,0,1,1.14,1c.67.63,1.58,1.53,2.57,2.53s1.86,1.92,2.49,2.6a7.19,7.19,0,0,1,1,1.15,5.69,5.69,0,0,1-1.14-1c-.67-.63-1.58-1.53-2.57-2.53s-1.87-1.93-2.5-2.61A6.17,6.17,0,0,1,89.63,280.49Z" style="fill:#e0e0e0"></path><path d="M89.52,238.9a7.18,7.18,0,0,1,1-1.14c.64-.67,1.53-1.58,2.53-2.57s1.93-1.86,2.61-2.49a6.71,6.71,0,0,1,1.15-1,6.15,6.15,0,0,1-1,1.14c-.64.67-1.53,1.58-2.54,2.57s-1.93,1.87-2.61,2.5A6,6,0,0,1,89.52,238.9Z" style="fill:#e0e0e0"></path><path d="M49.68,239a6.52,6.52,0,0,1-1.14-1c-.67-.63-1.58-1.53-2.57-2.53s-1.86-1.92-2.49-2.6a7.19,7.19,0,0,1-1-1.15,5.81,5.81,0,0,1,1.14,1c.67.64,1.58,1.54,2.57,2.54s1.87,1.93,2.5,2.61A5.81,5.81,0,0,1,49.68,239Z" style="fill:#e0e0e0"></path><path d="M89.52,280.32a1.57,1.57,0,0,1,0-.2c0-.15,0-.34,0-.58,0-.52,0-1.27,0-2.24,0-2,0-4.83,0-8.47,0-7.27,0-17.63-.08-30l.16.16L49.8,239h0l.18-.18c0,15.24,0,29.5,0,41.53l-.15-.15,28.77.07,8.08,0,2.13,0H86.7l-8,0-28.86.08h-.15v-.15c0-12,0-26.29,0-41.53v-.17h.19l39.72,0h.15v.15c0,12.45-.06,22.84-.08,30.14,0,3.62,0,6.47,0,8.43,0,1,0,1.7,0,2.21,0,.24,0,.43,0,.56S89.52,280.32,89.52,280.32Z" style="fill:#e0e0e0"></path><rect x="63.06" y="252.91" width="13.29" height="13.29" style="fill:#ebebeb"></rect><path d="M454,257.62c-10.71,5.55-18.92,15.1-24.82,25.61s-9.71,22-13.48,33.51l-3.3,59.08c12.46-21.2,22.46-46.12,25.16-70.56l-8.29-.73c5.56-.85,10.23-4.88,13.2-9.66s4.49-10.28,6-15.7l-10.11,1.5A37.51,37.51,0,0,0,454,257.62Z" style="fill:#e0e0e0"></path><path d="M410.51,389.66s-27.05-32.37-26.73-63.27H394.7s-11.87-7.8-10.93-12.17S385,293.3,385,293.3l10,2.5s-7.49-3.74-8.43-9.67,2.19-33.4,2.19-33.4,12.17,12.8,15.92,25.9S418.26,307,415.38,347,410.51,389.66,410.51,389.66Z" style="fill:#ebebeb"></path><path d="M424.22,392.71s29.29-19.52,35.8-44.43l-8.78-2.39s11.25-3.67,11.45-7.39,3.57-17.09,3.57-17.09l-8.58-.18s6.84-1.37,8.9-5.93S472.13,288,472.13,288s-12.59,7.63-18.47,17.35-17.13,19.86-23.55,52.61S424.22,392.71,424.22,392.71Z" style="fill:#ebebeb"></path><path d="M396.16,281a1.55,1.55,0,0,1,.09.34l.24,1c.2.91.49,2.2.86,3.84s.81,3.71,1.29,6.1,1,5.08,1.59,8.09c1.16,6,2.38,13.18,3.64,21.16s2.43,16.79,3.52,26,1.88,18.12,2.51,26.18S411,389,411.19,395.13c.15,3.05.22,5.82.29,8.24s.13,4.52.14,6.23,0,3,0,3.93v1a1.35,1.35,0,0,1,0,.35,1.6,1.6,0,0,1,0-.35c0-.26,0-.6-.05-1,0-.94-.08-2.25-.14-3.94s-.12-3.79-.23-6.22-.19-5.18-.37-8.23c-.29-6.1-.77-13.36-1.39-21.41s-1.5-16.9-2.56-26.16-2.29-18.05-3.48-26-2.41-15.16-3.53-21.16c-.52-3-1.06-5.72-1.51-8.11s-.85-4.43-1.2-6.11-.58-2.94-.76-3.86c-.08-.42-.14-.75-.19-1A1.33,1.33,0,0,1,396.16,281Z" style="fill:#e0e0e0"></path><path d="M406.76,409.48S382,381.4,374.32,364.42l5.8-2.47c-4.2.69-8.51-1.12-11.77-3.86s-5.65-6.36-8-9.91l7.64-1.29A28.44,28.44,0,0,1,351.29,334c9,1.49,17.18,6.44,23.9,12.63a117.73,117.73,0,0,1,14.48,16.78,57.39,57.39,0,0,1,5.63,9.25C399.46,381.2,406.77,399.17,406.76,409.48Z" style="fill:#ebebeb"></path><path d="M460.41,304.31a1.06,1.06,0,0,1-.11.29l-.38.82-1.51,3.11c-1.32,2.7-3.2,6.62-5.47,11.49s-4.91,10.69-7.73,17.21-5.78,13.75-8.74,21.39-5.6,15-7.92,21.7-4.28,12.81-5.87,17.94-2.84,9.29-3.67,12.18c-.42,1.41-.75,2.53-1,3.32l-.27.86a1.21,1.21,0,0,1-.11.29,1.14,1.14,0,0,1,.06-.31c.06-.22.13-.51.22-.87.21-.8.51-1.92.89-3.34.77-2.91,2-7.09,3.51-12.24s3.49-11.25,5.76-18S433,366.08,436,358.43s6-14.87,8.79-21.39,5.51-12.33,7.83-17.18,4.25-8.75,5.63-11.42l1.6-3.07c.17-.33.31-.59.42-.79S460.41,304.31,460.41,304.31Z" style="fill:#e0e0e0"></path><path d="M408.85,421.51a3.56,3.56,0,0,1-.12-.51c-.06-.4-.14-.9-.24-1.49-.19-1.3-.51-3.17-1-5.47s-1.09-5-1.9-8-1.86-6.22-3.11-9.57-2.65-6.45-4-9.24-2.68-5.23-3.86-7.25-2.17-3.64-2.89-4.73c-.32-.52-.58-.94-.8-1.28a2.29,2.29,0,0,1-.25-.47s.13.13.34.41l.88,1.22c.77,1.07,1.81,2.66,3,4.66s2.58,4.46,4,7.23,2.77,5.92,4.05,9.27,2.27,6.62,3.09,9.62,1.39,5.74,1.79,8.06.67,4.19.8,5.5l.15,1.5A1.64,1.64,0,0,1,408.85,421.51Z" style="fill:#e0e0e0"></path><rect x="387.35" y="414.91" width="54.16" height="11.05" style="fill:#e0e0e0"></rect><polygon points="392.51 425.95 398.06 457.63 430.79 457.63 436.56 425.95 392.51 425.95" style="fill:#e0e0e0"></polygon><path d="M438.19,426c0,.15-10.25.27-22.89.27s-22.88-.12-22.88-.27,10.24-.26,22.88-.26S438.19,425.81,438.19,426Z" style="fill:#ebebeb"></path><rect x="32.13" y="50.81" width="87.96" height="142.86" style="fill:#e0e0e0"></rect><rect x="29.2" y="50.81" width="87.96" height="142.86" style="fill:#ebebeb"></rect><rect x="32.95" y="53.7" width="80.47" height="137.07" style="fill:#fff"></rect><rect x="48.27" y="71.52" width="49.48" height="101.45" style="fill:#ebebeb"></rect><path d="M48.27,137.06c-.12-9.47,8.57-18.72,18.13-20,4.56-.63,9.41.26,13.67-1.45,7.6-3.06,10-13,17.68-15.92L98.1,173H48.27Z" style="fill:#e0e0e0"></path></g><g id="freepik--Floor--inject-39"><path d="M472.51,458.08c0,.14-99.63.26-222.5.26s-222.52-.12-222.52-.26,99.61-.26,222.52-.26S472.51,457.94,472.51,458.08Z" style="fill:#263238"></path></g><g id="freepik--Device--inject-39"><path d="M350.76,371.46H149.24a10.05,10.05,0,0,1-9.87-10.22v-308A10,10,0,0,1,149.24,43H350.76a10,10,0,0,1,9.87,10.21v308A10.05,10.05,0,0,1,350.76,371.46Z" style="fill:#263238"></path><path d="M253.86,356.52a9.39,9.39,0,1,1-9.39-9.22A9.3,9.3,0,0,1,253.86,356.52Z" style="fill:#455a64"></path><path d="M272.67,60.35H227.48a3.21,3.21,0,0,1-3.15-3.26h0a3.21,3.21,0,0,1,3.15-3.26h45.19a3.21,3.21,0,0,1,3.15,3.26h0A3.21,3.21,0,0,1,272.67,60.35Z" style="fill:#455a64"></path><rect x="146.15" y="66.43" width="207.31" height="274.31" style="fill:#fff"></rect><rect x="146.34" y="66.43" width="207.31" height="274.31" style="fill:#ebebeb"></rect><rect x="163.74" y="88.79" width="172.52" height="229.42" rx="9.86" style="fill:#fff"></rect><path d="M219.66,118.39l1-2.18a6.6,6.6,0,0,0,3.45,1c1.23,0,1.71-.34,1.71-.85,0-1.66-6-.45-6-4.34,0-1.88,1.53-3.4,4.64-3.4a7.86,7.86,0,0,1,3.81.91l-.92,2.2a6.17,6.17,0,0,0-2.9-.81c-1.24,0-1.69.42-1.69,1,0,1.6,5.94.4,5.94,4.26,0,1.83-1.53,3.39-4.64,3.39A8.26,8.26,0,0,1,219.66,118.39Z" style="fill:#407BFF"></path><path d="M229.64,108.81a1.57,1.57,0,0,1,1.73-1.51,1.54,1.54,0,0,1,1.74,1.47,1.75,1.75,0,0,1-3.47,0Zm.31,2.41h2.84v8.12H230Z" style="fill:#407BFF"></path><path d="M243.36,111.22v6.63c0,3.07-1.73,4.52-4.76,4.52a7.05,7.05,0,0,1-4-1.06l1-2a4.68,4.68,0,0,0,2.74.87c1.53,0,2.17-.69,2.17-2V118a3.05,3.05,0,0,1-2.41,1,3.92,3.92,0,1,1,0-7.83,2.94,2.94,0,0,1,2.54,1.12v-1ZM240.55,115a1.78,1.78,0,0,0-3.55,0,1.78,1.78,0,0,0,3.55,0Z" style="fill:#407BFF"></path><path d="M253.83,114.7v4.64H251v-4.18c0-1.17-.5-1.66-1.33-1.66s-1.61.57-1.61,1.91v3.93h-2.85v-8.12h2.71v.89a3.47,3.47,0,0,1,2.58-1C252.38,111.09,253.83,112.18,253.83,114.7Z" style="fill:#407BFF"></path><path d="M268.5,111.22v8.12h-2.71v-.87a3.2,3.2,0,0,1-2.41,1c-2,0-3.44-1.14-3.44-3.71v-4.54h2.84v4.07c0,1.26.5,1.76,1.35,1.76s1.53-.56,1.53-1.92v-3.91Z" style="fill:#407BFF"></path><path d="M279.42,115.28a3.93,3.93,0,0,1-4,4.19,3,3,0,0,1-2.27-.85v3.62h-2.84v-11H273V112a2.94,2.94,0,0,1,2.4-.94A3.93,3.93,0,0,1,279.42,115.28Zm-2.88,0a1.72,1.72,0,1,0-1.7,1.93A1.72,1.72,0,0,0,276.54,115.28Z" style="fill:#407BFF"></path><path d="M183.45,177.89V179h2v.78h-2v1.53h-1v-4.2h3.17v.78Z" style="fill:#263238"></path><path d="M189.42,178.08v3.23h-.89v-.39a1.32,1.32,0,0,1-1,.43,1.28,1.28,0,0,1-1.38-1.45v-1.82h.93v1.68c0,.54.24.78.66.78s.74-.27.74-.87v-1.59Z" style="fill:#263238"></path><path d="M190.29,176.86h.93v4.45h-.93Z" style="fill:#263238"></path><path d="M192.09,176.86H193v4.45h-.94Z" style="fill:#263238"></path><path d="M199.51,177.11v4.2h-.8l-2.09-2.55v2.55h-1v-4.2h.81l2.08,2.55v-2.55Z" style="fill:#263238"></path><path d="M203.3,179.46v1.85h-.88v-.41a1,1,0,0,1-1,.45c-.76,0-1.21-.42-1.21-1s.41-1,1.39-1h.74c0-.4-.24-.64-.74-.64a1.59,1.59,0,0,0-.93.3l-.34-.65a2.53,2.53,0,0,1,1.4-.39C202.73,178,203.3,178.49,203.3,179.46Zm-.94.83V180h-.64c-.44,0-.57.16-.57.37s.19.39.52.39A.68.68,0,0,0,202.36,180.29Z" style="fill:#263238"></path><path d="M209.6,179.46v1.85h-.94V179.6c0-.52-.23-.76-.61-.76s-.71.27-.71.85v1.62h-.94V179.6c0-.52-.22-.76-.61-.76s-.71.27-.71.85v1.62h-.93v-3.23H205v.37a1.29,1.29,0,0,1,1-.42,1.18,1.18,0,0,1,1.06.53,1.46,1.46,0,0,1,1.17-.53A1.25,1.25,0,0,1,209.6,179.46Z" style="fill:#263238"></path><path d="M213.62,180h-2.44a.85.85,0,0,0,.92.64,1.09,1.09,0,0,0,.81-.31l.5.54a1.69,1.69,0,0,1-1.33.52,1.67,1.67,0,0,1-1.84-1.66A1.64,1.64,0,0,1,212,178a1.6,1.6,0,0,1,1.68,1.67C213.64,179.78,213.62,179.88,213.62,180Zm-2.45-.55h1.59a.77.77,0,0,0-.8-.67A.76.76,0,0,0,211.17,179.41Z" style="fill:#263238"></path><path d="M185.73,208.29v.78h-3.25v-4.2h3.17v.78h-2.2v.91h2v.76h-2v1Z" style="fill:#263238"></path><path d="M191.89,207.22v1.85H191v-1.7c0-.52-.24-.76-.62-.76s-.71.27-.71.84v1.62h-.93v-1.7c0-.52-.23-.76-.62-.76s-.7.27-.7.84v1.62h-.94v-3.23h.89v.38a1.3,1.3,0,0,1,1-.42,1.21,1.21,0,0,1,1.06.52,1.45,1.45,0,0,1,1.16-.52A1.24,1.24,0,0,1,191.89,207.22Z" style="fill:#263238"></path><path d="M195.59,207.23v1.84h-.88v-.4a1.06,1.06,0,0,1-1,.45c-.76,0-1.21-.42-1.21-1s.41-1,1.39-1h.74c0-.41-.24-.64-.74-.64a1.52,1.52,0,0,0-.93.3l-.34-.65a2.45,2.45,0,0,1,1.4-.39C195,205.8,195.59,206.25,195.59,207.23Zm-.94.82v-.33H194c-.44,0-.57.16-.57.38s.19.39.52.39A.68.68,0,0,0,194.65,208.05Z" style="fill:#263238"></path><path d="M196.32,204.87a.59.59,0,1,1,.58.52A.53.53,0,0,1,196.32,204.87Zm.12,1h.93v3.23h-.93Z" style="fill:#263238"></path><path d="M198.24,204.62h.94v4.45h-.94Z" style="fill:#263238"></path><path d="M204.58,208.17h-2l-.37.9h-1l1.87-4.2h1l1.88,4.2h-1Zm-.31-.74-.66-1.6-.67,1.6Z" style="fill:#263238"></path><path d="M209.6,204.62v4.45h-.89v-.37a1.26,1.26,0,0,1-1,.42,1.66,1.66,0,0,1,0-3.32,1.21,1.21,0,0,1,1,.39v-1.57Zm-.92,2.84a.83.83,0,1,0-.82.89A.81.81,0,0,0,208.68,207.46Z" style="fill:#263238"></path><path d="M213.75,204.62v4.45h-.89v-.37a1.26,1.26,0,0,1-1,.42,1.66,1.66,0,0,1,0-3.32,1.23,1.23,0,0,1,1,.39v-1.57Zm-.92,2.84a.83.83,0,1,0-.82.89A.81.81,0,0,0,212.83,207.46Z" style="fill:#263238"></path><path d="M216.62,205.8v.86h-.21a.79.79,0,0,0-.86.9v1.52h-.93v-3.23h.89v.43A1.31,1.31,0,0,1,216.62,205.8Z" style="fill:#263238"></path><path d="M220.29,207.72h-2.44a.86.86,0,0,0,.92.65,1.08,1.08,0,0,0,.81-.31l.5.54a1.69,1.69,0,0,1-1.33.52,1.67,1.67,0,0,1-1.84-1.66,1.64,1.64,0,0,1,1.72-1.66,1.59,1.59,0,0,1,1.68,1.67A2.29,2.29,0,0,1,220.29,207.72Zm-2.45-.54h1.59a.77.77,0,0,0-.79-.68A.76.76,0,0,0,217.84,207.18Z" style="fill:#263238"></path><path d="M220.62,208.77l.31-.67a2.29,2.29,0,0,0,1.13.31c.43,0,.59-.11.59-.29,0-.53-2,0-2-1.28,0-.61.55-1,1.49-1a2.68,2.68,0,0,1,1.25.28l-.32.66a1.82,1.82,0,0,0-.93-.24c-.42,0-.6.14-.6.3,0,.56,1.95,0,1.95,1.29,0,.6-.56,1-1.52,1A2.75,2.75,0,0,1,220.62,208.77Z" style="fill:#263238"></path><path d="M223.81,208.77l.31-.67a2.28,2.28,0,0,0,1.12.31c.43,0,.6-.11.6-.29,0-.53-2,0-2-1.28,0-.61.55-1,1.49-1a2.64,2.64,0,0,1,1.24.28l-.31.66a1.87,1.87,0,0,0-.93-.24c-.42,0-.6.14-.6.3,0,.56,1.95,0,1.95,1.29,0,.6-.56,1-1.52,1A2.75,2.75,0,0,1,223.81,208.77Z" style="fill:#263238"></path><path d="M186.76,233.19c0,.94-.71,1.52-1.83,1.52h-.84v1.16h-1v-4.2h1.81C186.05,231.67,186.76,232.25,186.76,233.19Zm-1,0c0-.46-.3-.73-.89-.73h-.79v1.46h.79C185.47,233.92,185.77,233.65,185.77,233.19Z" style="fill:#263238"></path><path d="M190.21,234v1.84h-.88v-.4a1.06,1.06,0,0,1-1,.45c-.76,0-1.21-.42-1.21-1s.4-1,1.39-1h.74c0-.4-.24-.63-.74-.63a1.5,1.5,0,0,0-.93.3l-.34-.66a2.52,2.52,0,0,1,1.39-.39C189.64,232.59,190.21,233.05,190.21,234Zm-.94.82v-.33h-.64c-.44,0-.58.16-.58.38s.2.39.53.39A.7.7,0,0,0,189.27,234.85Z" style="fill:#263238"></path><path d="M190.74,235.57l.31-.67a2.28,2.28,0,0,0,1.12.31c.44,0,.6-.11.6-.29,0-.53-2,0-2-1.28,0-.61.55-1,1.49-1a2.61,2.61,0,0,1,1.24.29l-.31.66a1.84,1.84,0,0,0-.93-.24c-.42,0-.6.13-.6.3,0,.55,1.95,0,1.95,1.29,0,.6-.56,1-1.52,1A2.75,2.75,0,0,1,190.74,235.57Z" style="fill:#263238"></path><path d="M193.93,235.57l.31-.67a2.25,2.25,0,0,0,1.12.31c.43,0,.59-.11.59-.29,0-.53-1.94,0-1.94-1.28,0-.61.55-1,1.49-1a2.67,2.67,0,0,1,1.24.29l-.31.66a1.87,1.87,0,0,0-.93-.24c-.42,0-.6.13-.6.3,0,.55,1.95,0,1.95,1.29,0,.6-.56,1-1.53,1A2.73,2.73,0,0,1,193.93,235.57Z" style="fill:#263238"></path><path d="M202.55,232.64l-1.17,3.23h-.9l-.73-2-.75,2h-.9l-1.16-3.23h.88l.76,2.19.79-2.19h.8l.76,2.19.79-2.19Z" style="fill:#263238"></path><path d="M202.66,234.26a1.77,1.77,0,1,1,1.77,1.66A1.66,1.66,0,0,1,202.66,234.26Zm2.59,0a.83.83,0,1,0-.82.89A.82.82,0,0,0,205.25,234.26Z" style="fill:#263238"></path><path d="M208.83,232.59v.87h-.21a.79.79,0,0,0-.86.9v1.52h-.93v-3.23h.89v.43A1.31,1.31,0,0,1,208.83,232.59Z" style="fill:#263238"></path><path d="M212.65,231.42v4.45h-.9v-.37a1.24,1.24,0,0,1-1,.42,1.67,1.67,0,0,1,0-3.33,1.25,1.25,0,0,1,1,.39v-1.56Zm-.92,2.84a.83.83,0,1,0-.82.89A.82.82,0,0,0,211.73,234.26Z" style="fill:#263238"></path><rect x="208.78" y="284.85" width="89.47" height="18.31" rx="4.78" style="fill:#407BFF"></rect><path d="M224.82,293.59a2.53,2.53,0,0,1,2.69-2.55,2.57,2.57,0,0,1,2.11.93l-.88.79a1.46,1.46,0,0,0-1.16-.57,1.4,1.4,0,0,0,0,2.8,1.46,1.46,0,0,0,1.16-.57l.88.8a2.59,2.59,0,0,1-2.11.92A2.53,2.53,0,0,1,224.82,293.59Z" style="fill:#fff"></path><path d="M232.71,292.18v1.2l-.3,0a.83.83,0,0,0-.91.94V296h-1.33v-3.79h1.27v.45A1.55,1.55,0,0,1,232.71,292.18Z" style="fill:#fff"></path><path d="M237.08,294.48h-2.76a.89.89,0,0,0,.94.61,1.22,1.22,0,0,0,.87-.33l.7.73a2.08,2.08,0,0,1-1.62.62,2,2,0,0,1-2.22-2,2,2,0,0,1,2.08-2,1.9,1.9,0,0,1,2,2C237.1,294.25,237.09,294.38,237.08,294.48Zm-2.78-.7h1.56a.79.79,0,0,0-1.56,0Z" style="fill:#fff"></path><path d="M241.17,293.93V296h-1.24v-.49a1.15,1.15,0,0,1-1.12.56c-.91,0-1.41-.52-1.41-1.17s.51-1.14,1.68-1.14h.76c0-.38-.28-.6-.8-.6a1.69,1.69,0,0,0-1,.33l-.45-.91a3.25,3.25,0,0,1,1.67-.44C240.46,292.18,241.17,292.73,241.17,293.93Zm-1.33.89v-.33h-.57c-.43,0-.58.16-.58.39s.18.38.49.38A.65.65,0,0,0,239.84,294.82Z" style="fill:#fff"></path><path d="M244.63,295.89a1.78,1.78,0,0,1-.93.22,1.34,1.34,0,0,1-1.54-1.45v-1.28h-.55v-1h.55v-1h1.33v1h.87v1h-.87v1.26a.4.4,0,0,0,.4.44.79.79,0,0,0,.41-.12Z" style="fill:#fff"></path><path d="M248.89,294.48h-2.76a.87.87,0,0,0,.93.61,1.22,1.22,0,0,0,.87-.33l.7.73a2.06,2.06,0,0,1-1.61.62,2,2,0,0,1-2.23-2,2,2,0,0,1,2.09-2,1.9,1.9,0,0,1,2,2C248.91,294.25,248.89,294.38,248.89,294.48Zm-2.79-.7h1.56a.75.75,0,0,0-.78-.65A.76.76,0,0,0,246.1,293.78Z" style="fill:#fff"></path><path d="M254.9,295.09h-2.07l-.38,1H251l2.17-4.9h1.36l2.17,4.9h-1.44Zm-.4-1-.63-1.57-.63,1.57Z" style="fill:#fff"></path><path d="M256.79,294.14a2,2,0,0,1,2.17-2,1.79,1.79,0,0,1,1.78,1.05l-1,.52a.85.85,0,1,0-.75,1.3.83.83,0,0,0,.75-.51l1,.52a1.79,1.79,0,0,1-1.78,1.05A2,2,0,0,1,256.79,294.14Z" style="fill:#fff"></path><path d="M261,294.14a2,2,0,0,1,2.17-2,1.79,1.79,0,0,1,1.78,1.05l-1,.52a.85.85,0,1,0-.75,1.3.83.83,0,0,0,.75-.51l1,.52a1.79,1.79,0,0,1-1.78,1.05A2,2,0,0,1,261,294.14Z" style="fill:#fff"></path><path d="M265.14,294.14a2.15,2.15,0,1,1,2.15,2A2,2,0,0,1,265.14,294.14Zm2.95,0a.81.81,0,1,0-1.6,0,.81.81,0,1,0,1.6,0Z" style="fill:#fff"></path><path d="M274,292.25V296h-1.27v-.4a1.61,1.61,0,0,1-2.74-1.27v-2.12h1.33v1.9c0,.59.23.82.63.82s.72-.26.72-.9v-1.82Z" style="fill:#fff"></path><path d="M278.93,293.87V296H277.6v-2c0-.55-.24-.78-.62-.78s-.76.27-.76.9V296h-1.33v-3.79h1.27v.41a1.6,1.6,0,0,1,1.2-.48A1.49,1.49,0,0,1,278.93,293.87Z" style="fill:#fff"></path><path d="M282.38,295.89a1.76,1.76,0,0,1-.93.22,1.34,1.34,0,0,1-1.54-1.45v-1.28h-.55v-1h.55v-1h1.33v1h.87v1h-.87v1.26a.4.4,0,0,0,.4.44.79.79,0,0,0,.41-.12Z" style="fill:#fff"></path><path d="M253.75,179.46v-2.35h1v2.31c0,.8.35,1.13.94,1.13s.93-.33.93-1.13v-2.31h1v2.35a1.9,1.9,0,1,1-3.8,0Z" style="fill:#263238"></path><path d="M258.14,181l.31-.67a2.13,2.13,0,0,0,1.12.31c.43,0,.59-.11.59-.29,0-.53-2,0-2-1.28,0-.61.56-1,1.5-1a2.67,2.67,0,0,1,1.24.28l-.31.67a1.87,1.87,0,0,0-.93-.24c-.42,0-.6.13-.6.3,0,.55,1.95,0,1.95,1.29,0,.6-.56,1-1.53,1A2.73,2.73,0,0,1,258.14,181Z" style="fill:#263238"></path><path d="M264.78,180h-2.44a.85.85,0,0,0,.92.64,1.09,1.09,0,0,0,.81-.31l.5.54a1.7,1.7,0,0,1-1.34.52,1.68,1.68,0,0,1-1.84-1.66,1.65,1.65,0,0,1,1.72-1.66,1.6,1.6,0,0,1,1.68,1.67C264.79,179.78,264.78,179.88,264.78,180Zm-2.46-.55h1.59a.76.76,0,0,0-.79-.67A.77.77,0,0,0,262.32,179.41Z" style="fill:#263238"></path><path d="M267.42,178v.86h-.21a.79.79,0,0,0-.85.9v1.52h-.94v-3.22h.89v.42A1.31,1.31,0,0,1,267.42,178Z" style="fill:#263238"></path><path d="M271.28,179.46v1.84h-.94v-1.7c0-.52-.24-.76-.65-.76s-.77.28-.77.87v1.59H268v-3.22h.89v.38a1.42,1.42,0,0,1,1.07-.43A1.27,1.27,0,0,1,271.28,179.46Z" style="fill:#263238"></path><path d="M275,179.46v1.84h-.87v-.4a1.06,1.06,0,0,1-1,.45c-.75,0-1.2-.42-1.2-1s.4-1,1.38-1h.75c0-.4-.24-.64-.75-.64a1.61,1.61,0,0,0-.93.3l-.33-.65a2.47,2.47,0,0,1,1.39-.39C274.41,178,275,178.49,275,179.46Zm-.93.82V180h-.65c-.43,0-.57.16-.57.37s.2.39.53.39A.69.69,0,0,0,274.05,180.28Z" style="fill:#263238"></path><path d="M281.28,179.46v1.84h-.94v-1.7c0-.52-.23-.76-.61-.76s-.71.27-.71.85v1.61h-.94v-1.7c0-.52-.22-.76-.61-.76s-.71.27-.71.85v1.61h-.93v-3.22h.89v.37a1.3,1.3,0,0,1,1-.42,1.19,1.19,0,0,1,1.06.53A1.46,1.46,0,0,1,280,178,1.25,1.25,0,0,1,281.28,179.46Z" style="fill:#263238"></path><path d="M285.3,180h-2.44a.85.85,0,0,0,.92.64,1.08,1.08,0,0,0,.81-.31l.5.54a1.69,1.69,0,0,1-1.33.52,1.68,1.68,0,0,1-1.84-1.66,1.65,1.65,0,0,1,1.72-1.66,1.6,1.6,0,0,1,1.68,1.67A2.28,2.28,0,0,1,285.3,180Zm-2.45-.55h1.59a.81.81,0,0,0-1.59,0Z" style="fill:#263238"></path><path d="M183.11,166.43H241.6a.13.13,0,0,0,0-.25H183.11a.13.13,0,0,0,0,.25Z" style="fill:#263238"></path><path d="M258.94,166.43h58.49a.13.13,0,0,0,0-.25H258.94a.13.13,0,0,0,0,.25Z" style="fill:#263238"></path><path d="M246.45,165.8a2.09,2.09,0,1,1,2.09,2A2,2,0,0,1,246.45,165.8Zm3.62,0a1.53,1.53,0,1,0-1.53,1.51A1.48,1.48,0,0,0,250.07,165.8Z" style="fill:#263238"></path><path d="M253,164.76v.52h-.13a.89.89,0,0,0-.93,1v1.48h-.54v-3h.51v.5A1.15,1.15,0,0,1,253,164.76Z" style="fill:#263238"></path><rect x="181.98" y="185.95" width="64.73" height="12.68" rx="3.14" style="fill:#ebebeb"></rect><rect x="181.98" y="212.87" width="134.85" height="12.68" rx="3.14" style="fill:#ebebeb"></rect><rect x="181.98" y="239.87" width="134.85" height="12.68" rx="3.14" style="fill:#ebebeb"></rect><rect x="253.29" y="185.95" width="63.54" height="12.68" rx="3.14" style="fill:#ebebeb"></rect><rect x="183.58" y="259.82" width="5.28" height="5.28" rx="0.99" style="fill:#407BFF"></rect><path d="M310.8,264.74H194.59a2,2,0,0,1-2-1.95h0a2,2,0,0,1,2-1.95H310.8a2,2,0,0,1,1.95,1.95h0A1.94,1.94,0,0,1,310.8,264.74Z" style="fill:#e0e0e0"></path><path d="M213.71,272H195.19a2,2,0,0,1-1.95-1.95h0a1.94,1.94,0,0,1,1.95-1.94h18.52a2,2,0,0,1,1.95,1.94h0A2,2,0,0,1,213.71,272Z" style="fill:#e0e0e0"></path><rect x="182.58" y="137.38" width="134.85" height="16.63" rx="4.38" style="fill:#ebebeb"></rect><path d="M224.49,147l.22-.47a2.13,2.13,0,0,0,1.39.49c.72,0,1-.28,1-.65,0-1-2.54-.38-2.54-1.94,0-.64.51-1.19,1.61-1.19a2.48,2.48,0,0,1,1.35.37l-.2.48a2.12,2.12,0,0,0-1.15-.34c-.72,0-1,.3-1,.66,0,1,2.54.38,2.54,1.93,0,.64-.51,1.19-1.62,1.19A2.52,2.52,0,0,1,224.49,147Z" style="fill:#263238"></path><path d="M228.41,143.3a.38.38,0,0,1,.39-.38.37.37,0,0,1,.39.37.39.39,0,0,1-.78,0Zm.11,1h.57v3.18h-.57Z" style="fill:#263238"></path><path d="M233.23,144.28V147a1.44,1.44,0,0,1-1.65,1.63,2.38,2.38,0,0,1-1.52-.47l.28-.45a1.93,1.93,0,0,0,1.22.42c.75,0,1.09-.35,1.09-1.07v-.25a1.44,1.44,0,0,1-1.14.49,1.54,1.54,0,1,1,0-3.08,1.47,1.47,0,0,1,1.17.52v-.49Zm-.56,1.51a1.1,1.1,0,1,0-1.1,1A1,1,0,0,0,232.67,145.79Z" style="fill:#263238"></path><path d="M237.35,145.63v1.83h-.58V145.7c0-.63-.31-.93-.86-.93a.94.94,0,0,0-1,1v1.64h-.57v-3.18h.55v.48a1.37,1.37,0,0,1,1.15-.51A1.24,1.24,0,0,1,237.35,145.63Z" style="fill:#263238"></path><path d="M243,144.28v3.18h-.54V147a1.3,1.3,0,0,1-1.08.52,1.25,1.25,0,0,1-1.37-1.39v-1.83h.57v1.77c0,.62.32.93.86.93a.94.94,0,0,0,1-1v-1.65Z" style="fill:#263238"></path><path d="M247.38,145.87a1.54,1.54,0,0,1-1.6,1.63,1.36,1.36,0,0,1-1.11-.52v1.64h-.58v-4.34h.55v.51a1.35,1.35,0,0,1,1.14-.54A1.54,1.54,0,0,1,247.38,145.87Zm-.58,0a1.07,1.07,0,1,0-1.07,1.12A1,1,0,0,0,246.8,145.87Z" style="fill:#263238"></path><path d="M254.61,144.28l-1.19,3.18h-.55l-.92-2.41-.93,2.41h-.55l-1.18-3.18h.54l.93,2.53,1-2.53h.48l.94,2.55,1-2.55Z" style="fill:#263238"></path><path d="M255.09,143.3a.38.38,0,0,1,.39-.38.38.38,0,1,1-.39.38Zm.1,1h.58v3.18h-.58Z" style="fill:#263238"></path><path d="M258.65,147.28a1.08,1.08,0,0,1-.69.22.91.91,0,0,1-1-1v-1.74h-.54v-.48H257v-.69h.57v.69h.92v.48h-.92v1.72a.47.47,0,0,0,.5.53.7.7,0,0,0,.45-.15Z" style="fill:#263238"></path><path d="M262.36,145.63v1.83h-.57V145.7c0-.63-.31-.93-.86-.93a.94.94,0,0,0-1,1v1.64h-.57V143h.57v1.72a1.41,1.41,0,0,1,1.13-.48A1.23,1.23,0,0,1,262.36,145.63Z" style="fill:#263238"></path><path d="M268,145.34h.58V147a2.52,2.52,0,0,1-1.59.53,2.15,2.15,0,1,1,1.62-3.65l-.37.38a1.65,1.65,0,0,0-1.22-.49,1.62,1.62,0,1,0,0,3.23,1.79,1.79,0,0,0,1-.27Z" style="fill:#263238"></path><path d="M269.39,145.87A1.65,1.65,0,1,1,271,147.5,1.58,1.58,0,0,1,269.39,145.87Zm2.72,0A1.07,1.07,0,1,0,271,147,1,1,0,0,0,272.11,145.87Z" style="fill:#263238"></path><path d="M273.2,145.87a1.65,1.65,0,1,1,1.65,1.63A1.58,1.58,0,0,1,273.2,145.87Zm2.72,0a1.07,1.07,0,1,0-1.07,1.12A1,1,0,0,0,275.92,145.87Z" style="fill:#263238"></path><path d="M280.34,144.28V147a1.44,1.44,0,0,1-1.65,1.63,2.38,2.38,0,0,1-1.52-.47l.28-.45a2,2,0,0,0,1.22.42c.75,0,1.1-.35,1.1-1.07v-.25a1.48,1.48,0,0,1-1.15.49,1.54,1.54,0,1,1,0-3.08,1.45,1.45,0,0,1,1.17.52v-.49Zm-.56,1.51a1.1,1.1,0,0,0-2.19,0,1.1,1.1,0,0,0,2.19,0Z" style="fill:#263238"></path><path d="M281.44,143H282v4.45h-.58Z" style="fill:#263238"></path><path d="M286,146.06H283.4a1.07,1.07,0,0,0,1.15.93,1.16,1.16,0,0,0,.91-.38l.32.37a1.73,1.73,0,0,1-3-1.11,1.56,1.56,0,0,1,1.59-1.62,1.54,1.54,0,0,1,1.58,1.64A1,1,0,0,1,286,146.06Zm-2.57-.41h2a1,1,0,0,0-1-.91A1,1,0,0,0,283.4,145.65Z" style="fill:#263238"></path><path d="M216.56,145.71v.94h2.31a1.83,1.83,0,0,1-1.93,1.32,2.13,2.13,0,0,1-2.22-2.18,2.19,2.19,0,0,1,1-1.81,2.12,2.12,0,0,1,2.75.3.49.49,0,0,0,.62.12h0a.47.47,0,0,0,.13-.72,3,3,0,0,0-2.28-1,3.13,3.13,0,1,0,0,6.25,2.74,2.74,0,0,0,2.94-2.72v-.48Z" style="fill:#263238"></path><circle cx="331.22" cy="92.61" r="10.47" transform="translate(-10.33 132.9) rotate(-22.35)" style="fill:#407BFF"></circle><rect x="330.13" y="87.71" width="2.19" height="9.79" transform="translate(162.49 -207.08) rotate(45)" style="fill:#fff"></rect><rect x="330.13" y="87.71" width="2.19" height="9.79" transform="translate(31.53 261.33) rotate(-45)" style="fill:#fff"></rect></g><g id="freepik--speech-bubble--inject-39"><path d="M101.57,369.05l-6.49-.78a24.92,24.92,0,1,1,6.42-6.21h0Z" style="fill:#fff"></path><path d="M101.57,369.05s0-.17,0-.47,0-.78,0-1.36c0-1.19-.06-2.93-.1-5.17l.15.07h0a.09.09,0,0,1-.13,0,.09.09,0,0,1,0-.11,24.82,24.82,0,0,0,4.37-11.09,25.19,25.19,0,0,0-.21-7.85,24.87,24.87,0,0,0-3.21-8.32,25.39,25.39,0,0,0-6.72-7.19,24.12,24.12,0,0,0-9.76-4.21,25.27,25.27,0,0,0-11.28.48,24.25,24.25,0,0,0-10.28,5.85,25.19,25.19,0,0,0-3.89,4.69c-.5.87-1,1.73-1.44,2.63l-.59,1.37-.29.68-.22.71a25.12,25.12,0,0,0-1,11.36,24,24,0,0,0,3.84,10,25.33,25.33,0,0,0,7,7A24.76,24.76,0,0,0,76,371.7l2.06.36c.68.1,1.35.12,2,.18a22.88,22.88,0,0,0,3.81-.07,24.89,24.89,0,0,0,11.2-4h.06l4.78.63,1.26.17.44.07-.41,0-1.24-.13-4.85-.54h.06a24.77,24.77,0,0,1-11.27,4.11,23.39,23.39,0,0,1-3.86.1c-.66-.06-1.35-.07-2-.17L75.88,372a24.84,24.84,0,0,1-8.38-3.55,25.66,25.66,0,0,1-7.12-7.12,24.61,24.61,0,0,1-3.93-10.18,25.59,25.59,0,0,1,1-11.56l.22-.72.3-.7.59-1.39c.44-.92,1-1.8,1.48-2.68A25.31,25.31,0,0,1,64,329.35a24.57,24.57,0,0,1,10.47-6A25.77,25.77,0,0,1,86,322.91a24.63,24.63,0,0,1,9.91,4.31,25.71,25.71,0,0,1,6.8,7.32,25.05,25.05,0,0,1,3.22,8.45,25.53,25.53,0,0,1,.17,8,24.87,24.87,0,0,1-4.51,11.16l-.13-.13h0a.09.09,0,0,1,.13,0,.11.11,0,0,1,0,.06c0,2.26,0,4,0,5.23,0,.57,0,1,0,1.33S101.57,369.05,101.57,369.05Z" style="fill:#263238"></path><polygon points="70.28 349.08 73.4 345.74 79.81 351.06 91.63 338.89 94.74 342.02 79.56 357.31 70.28 349.08" style="fill:#407BFF"></polygon></g></svg>